<svg viewBox="0 0 400 400" xmlns="http://www.w3.org/2000/svg">
  <!-- Topographic contour-line pattern for tiling -->
  <!-- Set 1: Upper left concentric contours -->
  <circle cx="80" cy="80" r="60" fill="none" stroke="#D4A574" stroke-width="1" opacity="0.7" />
  <circle cx="80" cy="80" r="48" fill="none" stroke="#D4A574" stroke-width="0.8" opacity="0.6" />
  <circle cx="80" cy="80" r="36" fill="none" stroke="#D4A574" stroke-width="0.8" opacity="0.5" />
  <circle cx="80" cy="80" r="24" fill="none" stroke="#D4A574" stroke-width="0.8" opacity="0.4" />
  <circle cx="80" cy="80" r="12" fill="none" stroke="#D4A574" stroke-width="0.6" opacity="0.3" />

  <!-- Set 2: Lower right concentric contours -->
  <circle cx="320" cy="320" r="55" fill="none" stroke="#D4A574" stroke-width="1" opacity="0.7" />
  <circle cx="320" cy="320" r="44" fill="none" stroke="#D4A574" stroke-width="0.8" opacity="0.6" />
  <circle cx="320" cy="320" r="33" fill="none" stroke="#D4A574" stroke-width="0.8" opacity="0.5" />
  <circle cx="320" cy="320" r="22" fill="none" stroke="#D4A574" stroke-width="0.8" opacity="0.4" />
  <circle cx="320" cy="320" r="11" fill="none" stroke="#D4A574" stroke-width="0.6" opacity="0.3" />

  <!-- Set 3: Center-right concentric contours -->
  <circle cx="300" cy="120" r="50" fill="none" stroke="#D4A574" stroke-width="1" opacity="0.7" />
  <circle cx="300" cy="120" r="40" fill="none" stroke="#D4A574" stroke-width="0.8" opacity="0.6" />
  <circle cx="300" cy="120" r="30" fill="none" stroke="#D4A574" stroke-width="0.8" opacity="0.5" />
  <circle cx="300" cy="120" r="20" fill="none" stroke="#D4A574" stroke-width="0.8" opacity="0.4" />
  <circle cx="300" cy="120" r="10" fill="none" stroke="#D4A574" stroke-width="0.6" opacity="0.3" />

  <!-- Set 4: Lower left concentric contours -->
  <circle cx="120" cy="320" r="45" fill="none" stroke="#D4A574" stroke-width="1" opacity="0.7" />
  <circle cx="120" cy="320" r="36" fill="none" stroke="#D4A574" stroke-width="0.8" opacity="0.6" />
  <circle cx="120" cy="320" r="27" fill="none" stroke="#D4A574" stroke-width="0.8" opacity="0.5" />
  <circle cx="120" cy="320" r="18" fill="none" stroke="#D4A574" stroke-width="0.8" opacity="0.4" />
  <circle cx="120" cy="320" r="9" fill="none" stroke="#D4A574" stroke-width="0.6" opacity="0.3" />

  <!-- Set 5: Upper right concentric contours -->
  <circle cx="320" cy="80" r="40" fill="none" stroke="#D4A574" stroke-width="1" opacity="0.7" />
  <circle cx="320" cy="80" r="32" fill="none" stroke="#D4A574" stroke-width="0.8" opacity="0.6" />
  <circle cx="320" cy="80" r="24" fill="none" stroke="#D4A574" stroke-width="0.8" opacity="0.5" />
  <circle cx="320" cy="80" r="16" fill="none" stroke="#D4A574" stroke-width="0.8" opacity="0.4" />
  <circle cx="320" cy="80" r="8" fill="none" stroke="#D4A574" stroke-width="0.6" opacity="0.3" />

  <!-- Set 6: Center-left concentric contours -->
  <circle cx="100" cy="200" r="35" fill="none" stroke="#D4A574" stroke-width="1" opacity="0.7" />
  <circle cx="100" cy="200" r="28" fill="none" stroke="#D4A574" stroke-width="0.8" opacity="0.6" />
  <circle cx="100" cy="200" r="21" fill="none" stroke="#D4A574" stroke-width="0.8" opacity="0.5" />
  <circle cx="100" cy="200" r="14" fill="none" stroke="#D4A574" stroke-width="0.8" opacity="0.4" />
  <circle cx="100" cy="200" r="7" fill="none" stroke="#D4A574" stroke-width="0.6" opacity="0.3" />
</svg>
